<?xml version="1.0" standalone="no"?>
<!DOCTYPE svg PUBLIC "-//W3C//DTD SVG 20010904//EN"
 "http://www.w3.org/TR/2001/REC-SVG-20010904/DTD/svg10.dtd">
<svg version="1.0" xmlns="http://www.w3.org/2000/svg"
 width="1080.000000pt" height="1080.000000pt" viewBox="0 0 1080.000000 1080.000000"
 preserveAspectRatio="xMidYMid meet">
<metadata>
Created by potrace 1.16, written by Peter Selinger 2001-2019
</metadata>
<g transform="translate(0.000000,1080.000000) scale(0.100000,-0.100000)"
fill="#000000" stroke="none">
<path d="M5396 10280 c-75 -3 -111 -9 -114 -17 -2 -8 -20 -13 -43 -13 -36 0
-39 -2 -39 -27 0 -16 -2 -71 -5 -123 -4 -53 -2 -101 3 -109 8 -11 78 -16 348
-23 248 -6 380 -14 494 -30 85 -11 179 -23 208 -25 28 -3 52 -9 52 -14 0 -5
12 -7 28 -3 21 4 24 3 12 -5 -12 -8 -6 -11 25 -12 51 -2 93 -6 125 -12 14 -2
35 -5 48 -6 14 0 20 -5 16 -12 -4 -6 1 -10 12 -8 33 5 104 -12 101 -24 -1 -7
7 -12 18 -12 11 -1 26 -4 33 -9 20 -12 150 -46 179 -46 14 0 23 -3 19 -7 -10
-11 76 -42 100 -36 14 3 23 -1 27 -11 4 -9 17 -16 30 -16 13 0 34 -9 47 -20
13 -11 30 -21 39 -21 53 -5 65 -8 72 -22 5 -8 21 -18 36 -22 15 -3 39 -15 54
-26 15 -10 30 -19 34 -19 14 0 113 -49 120 -59 3 -6 13 -11 22 -11 9 0 30 -11
47 -24 17 -13 46 -27 64 -30 17 -4 32 -12 32 -17 0 -5 4 -9 10 -9 11 0 78 -43
101 -65 9 -8 21 -15 27 -15 5 0 12 -5 14 -10 2 -6 13 -12 25 -14 30 -6 63 -25
63 -36 0 -6 6 -10 14 -10 8 0 29 -12 46 -26 17 -15 34 -24 37 -20 3 3 21 -10
40 -29 19 -19 45 -38 59 -41 14 -4 23 -9 20 -11 -3 -3 4 -14 14 -26 11 -11 22
-18 25 -15 3 3 31 -19 63 -48 31 -30 63 -54 69 -54 7 0 13 -4 13 -10 0 -5 6
-7 14 -4 9 3 17 -3 21 -16 4 -12 13 -19 23 -18 13 2 17 -4 16 -25 0 -19 4 -26
13 -22 17 6 53 -16 53 -32 0 -7 9 -17 21 -23 27 -15 275 -260 263 -261 -5 0 2
-5 15 -10 13 -5 21 -15 18 -23 -3 -7 4 -19 15 -27 27 -18 39 -31 63 -65 11
-15 28 -35 38 -43 9 -9 17 -21 17 -28 0 -7 9 -17 20 -23 11 -6 27 -26 35 -45
7 -19 18 -35 24 -35 8 0 26 -25 83 -115 7 -11 21 -26 31 -33 9 -7 17 -19 17
-26 0 -8 9 -16 20 -19 12 -3 20 -14 20 -26 0 -12 4 -21 8 -21 4 0 13 -15 20
-32 6 -18 25 -47 41 -64 17 -18 33 -44 37 -58 3 -14 10 -26 15 -26 5 0 8 -3 8
-7 -4 -25 3 -53 12 -50 12 2 50 -60 110 -180 23 -45 46 -81 52 -80 5 1 11 -11
14 -27 2 -16 9 -38 14 -48 6 -12 6 -18 -1 -18 -12 0 -13 -37 -1 -45 5 -3 11 3
14 12 3 13 7 8 12 -14 4 -18 11 -33 15 -33 9 0 40 -74 45 -105 5 -30 18 -62
53 -138 18 -37 30 -72 27 -77 -3 -4 2 -15 10 -24 14 -13 39 -84 49 -136 1 -8
12 -36 25 -63 20 -43 21 -52 10 -107 -6 -33 -9 -63 -5 -67 3 -3 6 3 6 15 0 11
4 23 9 26 16 10 28 -18 36 -78 6 -52 25 -100 46 -116 14 -10 82 -370 95 -505
5 -51 9 -64 16 -50 7 16 7 14 3 -7 -3 -14 2 -120 10 -235 8 -114 15 -280 15
-368 0 -279 -44 -713 -95 -937 -9 -40 -23 -104 -32 -143 -23 -104 -100 -373
-129 -452 -14 -37 -34 -90 -44 -118 -9 -27 -30 -77 -45 -110 -55 -122 -93
-242 -100 -310 -7 -64 -29 -121 -80 -204 -5 -9 -21 -34 -35 -56 -67 -110 -218
-336 -256 -385 -77 -98 -84 -108 -84 -119 0 -6 -4 -11 -9 -11 -4 0 -29 -27
-55 -60 -26 -33 -53 -65 -59 -72 -7 -7 -39 -44 -71 -83 -32 -38 -120 -132
-195 -209 -115 -117 -204 -197 -469 -427 -19 -16 -36 -29 -38 -29 -3 0 -48
-33 -100 -73 -96 -72 -411 -277 -427 -277 -5 0 -21 -9 -36 -19 -34 -25 -360
-188 -410 -206 -20 -7 -61 -24 -91 -37 -255 -115 -755 -245 -1004 -263 -43 -3
-85 -10 -92 -15 -6 -6 -24 -8 -38 -4 -16 4 -26 2 -26 -5 0 -6 -5 -11 -11 -11
-5 0 -8 4 -4 9 3 5 0 13 -5 16 -7 5 -9 26 -4 61 6 50 4 55 -24 84 -23 22 -40
30 -69 31 -32 1 -34 2 -13 8 48 13 3 17 -160 11 -170 -5 -580 15 -590 29 -3 4
-50 11 -105 14 -119 7 -296 37 -289 49 3 4 -3 7 -13 6 -42 -3 -73 3 -73 15 0
7 -15 13 -38 14 -52 2 -116 17 -197 47 -107 39 -105 39 -185 -69 -58 -78 -75
-95 -96 -95 -39 0 -108 22 -117 37 -4 7 -23 13 -42 13 -19 0 -36 4 -39 9 -3 5
-18 12 -33 16 -14 3 -38 15 -51 26 -14 10 -35 19 -48 19 -13 0 -27 6 -31 14
-7 11 -146 82 -278 141 -22 10 -44 24 -48 31 -4 8 -14 14 -21 14 -7 0 -30 13
-51 30 -21 16 -44 30 -52 30 -7 0 -36 16 -64 35 -28 19 -55 35 -60 35 -5 0 -9
7 -9 15 0 9 -12 18 -30 21 -16 4 -35 13 -41 21 -7 8 -28 21 -47 29 -20 8 -42
23 -49 34 -8 11 -20 20 -26 20 -7 0 -29 15 -48 33 -51 46 -92 77 -103 77 -6 0
-22 12 -37 26 -15 15 -38 32 -51 38 -14 7 -22 19 -20 30 2 11 -1 15 -7 11 -6
-3 -11 -2 -11 2 0 5 -12 16 -27 25 -16 9 -50 37 -78 63 -27 26 -67 58 -88 71
-20 13 -37 28 -37 33 0 5 -9 11 -20 14 -11 3 -20 12 -20 19 0 8 -11 20 -24 27
-13 7 -29 24 -36 36 -7 13 -21 26 -31 28 -10 3 -23 17 -29 31 -10 27 -75 96
-91 96 -5 0 -9 6 -9 13 0 7 -22 37 -50 65 -28 29 -50 56 -50 62 0 5 -7 10 -15
10 -9 0 -25 16 -36 35 -12 20 -30 40 -40 46 -11 5 -19 16 -19 23 0 8 -13 28
-29 45 -17 18 -33 40 -36 49 -3 9 -28 42 -56 72 -27 30 -59 74 -71 97 -12 23
-25 40 -30 37 -4 -3 -8 3 -8 13 0 10 -9 24 -19 30 -11 7 -25 28 -32 48 -7 19
-19 35 -25 35 -7 0 -15 13 -19 30 -4 16 -10 30 -15 30 -5 0 -11 8 -14 18 -4
10 -26 49 -51 87 -25 37 -45 74 -45 81 0 7 -6 17 -14 21 -7 4 -28 40 -46 78
-18 39 -37 71 -41 73 -12 5 -69 119 -62 125 3 3 -3 18 -14 34 -11 15 -25 47
-33 71 -7 23 -17 42 -22 42 -4 0 -8 11 -8 24 0 14 -5 28 -10 31 -6 3 -10 16
-10 29 0 12 -5 27 -12 34 -16 16 -40 83 -39 110 0 12 -4 22 -9 22 -6 0 -10 7
-10 15 0 8 -4 15 -10 15 -5 0 -13 12 -16 28 -4 15 -15 43 -25 63 -10 20 -16
39 -13 42 3 3 -6 37 -20 76 -14 39 -26 86 -28 106 -1 20 -8 41 -14 46 -7 6
-16 29 -19 52 -4 23 -16 76 -27 117 -12 41 -23 91 -25 110 -2 19 -8 44 -13 55
-10 20 -49 260 -57 345 -14 158 -23 358 -22 505 2 179 22 465 39 550 6 28 12
70 15 95 8 77 51 279 68 320 3 8 13 47 21 85 24 116 54 226 64 238 5 7 15 37
22 67 7 30 16 62 21 70 5 8 12 22 15 30 3 8 17 47 31 85 15 39 37 94 50 123
14 30 22 60 19 68 -3 8 -1 14 4 14 10 0 80 128 80 147 0 7 3 13 8 13 4 0 8 17
10 37 1 20 8 41 15 45 6 4 8 8 2 8 -5 0 -2 5 7 11 10 5 18 21 18 34 0 14 5 25
10 25 10 0 33 44 34 65 1 6 9 18 19 28 10 10 15 22 12 27 -7 12 22 70 36 70 6
0 7 5 4 10 -3 6 -1 10 4 10 6 0 11 8 11 18 1 18 70 144 70 127 0 -17 30 32 33
55 2 13 11 28 20 35 9 7 14 14 12 17 -3 3 24 48 60 102 36 53 65 99 65 102 0
3 9 17 20 31 27 35 26 63 -2 62 -13 -1 -52 9 -88 21 -39 14 -100 24 -153 27
l-88 5 -35 -38 c-19 -22 -52 -65 -73 -96 -21 -32 -42 -54 -46 -50 -5 4 -5 2
-2 -4 4 -6 -25 -59 -63 -117 -39 -59 -70 -111 -70 -117 0 -6 -4 -9 -9 -6 -5 3
-18 -16 -30 -44 -12 -27 -26 -52 -31 -55 -6 -4 -8 -11 -5 -16 4 -5 1 -9 -6 -9
-7 0 -9 -3 -6 -7 4 -3 -1 -11 -9 -18 -9 -6 -16 -24 -16 -38 0 -15 -6 -27 -13
-27 -12 0 -45 -72 -45 -98 0 -7 -4 -12 -9 -12 -5 0 -14 -20 -20 -44 -6 -24
-18 -46 -26 -50 -8 -3 -15 -11 -15 -18 0 -7 -14 -42 -32 -78 -49 -101 -56
-120 -78 -192 -11 -36 -27 -79 -35 -95 -8 -15 -15 -36 -15 -45 0 -10 -9 -41
-20 -70 -11 -29 -27 -82 -36 -118 -9 -36 -22 -78 -29 -95 -7 -16 -20 -66 -30
-110 -10 -44 -26 -107 -35 -140 -10 -33 -25 -112 -35 -175 -9 -63 -23 -144
-31 -180 -7 -36 -18 -128 -24 -205 -6 -77 -15 -176 -20 -220 -9 -82 -13 -492
-5 -505 3 -5 7 -55 10 -111 5 -104 21 -262 32 -309 3 -14 7 -49 8 -77 2 -29 8
-75 15 -103 7 -28 9 -57 6 -66 -4 -10 -2 -13 6 -8 8 5 9 1 4 -11 -7 -20 4 -77
35 -185 10 -36 19 -82 19 -102 0 -20 5 -38 11 -40 6 -2 12 -25 13 -51 0 -26 4
-47 9 -47 4 0 7 -13 7 -28 0 -15 5 -33 11 -39 5 -5 16 -34 23 -64 7 -30 16
-61 20 -70 4 -9 -2 -25 -14 -39 -26 -30 -25 -42 2 -38 23 3 48 -30 48 -64 0
-10 7 -18 15 -18 10 0 15 -10 15 -30 0 -29 -2 -30 -23 -19 -28 15 -38 30 -32
47 3 7 1 11 -3 8 -5 -3 -16 11 -27 30 -36 68 -41 28 -5 -52 22 -49 36 -61 75
-66 20 -2 31 -9 33 -23 2 -11 10 -27 18 -36 8 -9 11 -19 7 -22 -3 -4 -1 -7 5
-7 7 0 12 -11 12 -25 0 -14 5 -25 10 -25 6 0 10 -11 10 -24 0 -34 10 -57 23
-49 6 4 8 -3 3 -20 -5 -21 -3 -25 9 -21 21 9 19 -8 -6 -35 -25 -26 -17 -41 12
-23 26 17 39 7 39 -29 0 -16 5 -29 11 -29 5 0 9 -8 8 -17 -3 -39 1 -52 16 -47
10 4 15 0 15 -14 0 -12 4 -23 9 -26 15 -9 50 -84 43 -91 -3 -3 1 -3 10 0 12 5
26 -12 59 -72 24 -43 48 -85 54 -94 5 -9 18 -32 29 -50 25 -45 205 -320 223
-339 7 -8 39 -51 70 -95 165 -231 495 -594 723 -794 41 -36 86 -76 100 -89 68
-63 425 -323 565 -411 69 -43 297 -173 345 -197 219 -108 449 -207 605 -261
136 -47 338 -108 405 -122 30 -7 71 -16 90 -21 256 -68 503 -102 874 -121 403
-20 930 25 1307 112 224 51 497 137 709 222 158 64 150 60 375 172 110 55 206
99 212 99 7 -1 10 2 7 7 -5 8 9 13 29 10 4 0 7 3 7 9 0 5 19 19 42 31 23 12
80 47 127 78 47 32 115 77 151 101 61 41 219 157 230 169 3 4 39 33 80 66 41
33 80 65 86 70 6 6 44 39 84 75 101 90 214 204 355 356 250 271 439 527 604
819 41 72 85 147 98 167 12 21 23 42 23 47 0 26 32 66 52 66 13 0 27 9 34 24
11 21 13 22 17 5 4 -12 5 -7 5 11 -1 17 2 37 6 46 4 9 6 20 5 25 -4 24 2 32
23 26 17 -4 20 -2 15 13 -5 13 -3 16 8 11 20 -7 19 8 -1 28 -8 9 -12 21 -8 27
5 8 10 7 16 -5 12 -22 28 -20 28 4 0 11 5 20 10 20 15 0 12 77 -2 83 -7 2 -10
8 -6 12 4 4 15 2 24 -6 16 -13 17 -11 11 29 -5 26 -3 42 3 42 5 0 10 8 10 18
0 9 7 30 15 46 8 15 15 45 15 66 0 42 25 74 34 43 3 -10 3 1 0 25 -5 35 -3 42
12 42 15 0 16 -8 11 -68 -4 -42 -3 -60 3 -47 13 29 12 100 -2 129 -9 21 -8 33
7 66 13 29 16 53 12 90 -3 27 -2 52 4 55 5 4 9 -4 9 -17 0 -13 5 -30 11 -38 7
-11 8 -4 4 26 -4 23 -2 50 4 60 18 35 24 59 22 95 -1 21 2 40 8 43 6 4 13 29
17 56 4 28 11 50 16 50 6 0 8 14 4 34 -6 30 -4 34 11 30 16 -5 18 4 19 88 1
64 7 102 18 123 9 17 16 47 16 67 0 20 5 40 10 43 6 4 9 44 8 98 -2 51 1 99 7
107 5 8 10 31 11 50 12 191 14 273 14 525 -1 273 -12 513 -25 567 -3 13 -2 42
3 63 9 41 -2 105 -17 105 -4 0 -11 35 -14 79 -3 43 -10 89 -17 101 -7 12 -13
53 -13 91 -1 38 -4 64 -8 58 -9 -15 -20 36 -12 57 4 12 3 15 -5 10 -9 -5 -12
7 -12 41 0 26 -9 68 -20 92 -11 24 -20 53 -20 64 0 30 -33 137 -42 137 -4 0
-8 11 -8 23 0 13 -9 50 -20 83 -11 32 -20 69 -20 81 0 12 -10 44 -21 70 -32
71 -36 82 -60 156 -11 37 -25 65 -30 61 -5 -3 -9 -2 -10 3 -4 56 -10 88 -18
91 -6 2 -13 19 -17 38 -3 19 -10 34 -15 34 -5 0 -9 7 -9 17 0 18 -51 126 -62
131 -5 2 -8 12 -8 22 0 10 -5 22 -11 25 -5 4 -21 30 -34 58 -29 62 -53 99 -81
130 -6 6 -9 18 -8 27 2 8 -7 28 -20 44 l-25 30 -12 -27 c-10 -22 -10 -30 1
-40 10 -10 12 -8 6 8 -5 16 -2 15 13 -5 20 -25 20 -25 1 -28 -13 -2 -20 -11
-20 -25 0 -13 3 -17 8 -11 23 34 52 19 52 -27 0 -10 6 -19 14 -19 19 0 31 -39
17 -53 -17 -17 -13 -31 4 -17 9 7 17 11 19 9 11 -15 46 -78 46 -83 0 -13 -30
22 -38 45 -7 17 -10 19 -14 7 -4 -9 6 -28 23 -47 16 -18 29 -29 29 -24 0 4 5
0 11 -10 7 -12 7 -28 -1 -52 -6 -19 -9 -43 -7 -52 3 -12 5 -9 6 8 1 34 26 57
35 33 9 -24 6 -42 -4 -19 -7 16 -8 12 -6 -14 3 -31 30 -66 45 -57 3 2 6 -9 7
-26 1 -20 -2 -25 -7 -16 -6 9 -8 4 -7 -14 1 -15 6 -24 11 -21 5 3 6 -4 2 -16
-5 -16 -2 -21 10 -21 12 0 16 -6 12 -20 -3 -11 -1 -18 4 -14 5 3 9 -15 9 -40
0 -34 4 -46 15 -46 8 0 15 -7 15 -16 0 -8 5 -12 11 -8 8 4 9 -1 5 -17 -7 -24
-7 -24 8 1 17 28 22 10 6 -21 -8 -14 -7 -19 1 -19 8 0 10 -13 5 -40 -7 -46 5
-53 21 -12 l10 27 11 -27 c6 -15 8 -42 5 -62 -4 -26 -1 -40 13 -53 17 -17 18
-17 10 2 -15 37 -17 60 -3 29 8 -17 13 -44 10 -60 -4 -23 -2 -26 7 -14 8 11 9
6 4 -24 -5 -28 -4 -37 5 -32 6 4 14 0 18 -9 3 -10 0 -21 -8 -25 -10 -7 -8 -13
9 -27 23 -18 62 -143 67 -208 1 -16 7 -41 15 -55 9 -16 9 -25 2 -28 -10 -3 -7
-57 5 -92 4 -12 7 -11 14 5 8 16 8 15 4 -7 -3 -15 -1 -30 5 -33 5 -3 10 -11
10 -17 0 -7 -6 -6 -15 2 -18 15 -21 -1 -5 -30 6 -12 6 -27 1 -42 -10 -23 -10
-23 -10 5 -1 17 -6 27 -16 27 -14 0 -21 47 -15 104 1 11 -3 15 -9 12 -12 -8
-4 47 11 77 10 19 -17 75 -30 62 -4 -3 0 -10 8 -15 12 -7 12 -16 2 -55 -7 -25
-12 -76 -12 -114 0 -51 -4 -70 -15 -74 -12 -5 -14 7 -14 69 0 42 -1 77 -3 79
-2 1 -38 5 -80 7 l-78 3 -2 -30 c0 -16 -1 -35 -1 -41 0 -6 -9 -10 -21 -9 -17
1 -22 9 -24 42 -3 35 0 42 18 48 17 5 20 13 18 38 -2 27 -8 33 -30 35 -23 3
-28 9 -29 30 -1 27 -1 27 -8 3 -4 -14 -11 -26 -17 -28 -11 -4 -34 60 -34 95 0
11 -4 23 -9 27 -5 3 -12 20 -16 38 -7 32 -10 43 -45 155 -10 34 -17 69 -14 76
3 7 -1 18 -9 24 -9 7 -12 23 -9 38 3 15 -1 29 -8 34 -8 5 -10 15 -6 26 7 18 8
18 17 1 13 -23 29 -13 29 19 0 14 -6 24 -14 24 -9 0 -19 17 -25 43 l-10 42 1
-40 c0 -67 -1 -72 -13 -52 -6 10 -8 34 -5 53 8 39 -9 47 -18 9 -6 -24 -26 -27
-26 -4 0 6 5 7 10 4 11 -7 11 9 0 45 -6 18 -8 20 -9 7 -1 -10 -6 -15 -11 -12
-7 4 -7 12 0 25 5 10 10 43 9 72 0 45 -2 49 -10 29 -5 -14 -7 -36 -4 -50 3
-14 0 -33 -6 -41 -8 -12 -9 -10 -4 9 5 17 4 21 -5 16 -8 -5 -11 1 -10 21 3 43
1 51 -11 34 -8 -12 -9 -10 -4 7 4 15 0 26 -15 36 -14 10 -19 22 -16 43 2 16 1
20 -1 10 -4 -15 -7 -16 -13 -6 -5 8 -4 22 2 33 5 10 7 21 4 25 -3 3 -6 0 -6
-6 0 -7 -5 -12 -11 -12 -6 0 -9 7 -5 15 6 18 -2 45 -15 45 -4 0 -6 -8 -3 -17
5 -15 4 -16 -5 -3 -6 8 -11 23 -11 33 0 9 -4 17 -9 17 -13 0 -31 57 -24 75 4
11 1 13 -13 8 -13 -5 -16 -3 -11 10 3 9 3 17 -1 17 -13 0 -43 60 -36 72 4 7 3
8 -4 4 -7 -4 -14 3 -18 19 -3 14 -11 25 -16 25 -6 0 -7 12 -4 28 5 20 4 23 -4
12 -9 -13 -14 -7 -11 13 0 4 -4 7 -9 7 -6 0 -10 5 -10 11 0 6 -7 18 -16 26 -8
9 -13 25 -11 35 4 14 1 18 -9 14 -16 -6 -34 22 -26 43 3 8 0 11 -7 7 -6 -4
-11 0 -11 11 0 10 -5 25 -11 33 -9 12 -10 12 -5 -4 6 -16 4 -17 -9 -6 -8 7
-15 18 -14 24 3 24 -1 37 -10 31 -5 -3 -28 21 -50 52 -22 32 -44 63 -48 68
-61 79 -91 124 -85 130 4 4 2 5 -4 3 -6 -2 -39 33 -74 77 -75 94 -201 238
-277 314 -29 30 -53 60 -53 68 0 7 -4 12 -8 11 -7 -2 -146 110 -232 186 -8 7
-55 44 -105 82 -49 37 -92 71 -95 74 -3 3 -18 13 -33 23 -15 10 -25 23 -21 29
4 7 3 8 -4 4 -21 -13 -77 28 -65 48 3 5 1 6 -6 2 -6 -4 -19 -2 -28 5 -15 13
-40 29 -81 50 -12 7 -21 17 -19 23 4 11 -34 46 -49 46 -4 0 1 -6 12 -14 10 -8
16 -17 13 -20 -3 -3 -23 6 -45 22 -21 15 -50 33 -64 40 -20 9 -20 11 -4 7 27
-7 40 20 16 34 -14 9 -12 10 13 11 20 0 35 -7 43 -20 24 -39 42 -25 42 35 0
30 5 55 10 55 18 0 25 2 43 11 25 14 12 29 -23 24 -31 -4 -46 15 -27 34 17 17
34 13 61 -15 14 -16 30 -24 38 -20 7 4 24 13 37 21 31 17 44 10 31 -15 -10
-18 -8 -19 15 -10 17 7 24 7 20 0 -3 -6 4 -10 18 -10 27 0 101 -53 89 -64 -3
-4 2 -4 13 0 18 7 19 6 5 -11 -10 -12 -10 -16 -2 -11 7 4 24 0 40 -10 15 -10
33 -19 41 -20 7 -2 19 -8 25 -15 8 -9 7 -10 -4 -4 -9 5 -12 4 -7 -1 5 -5 12
-9 15 -10 21 -3 42 -18 42 -30 0 -8 7 -14 16 -14 23 0 85 -50 77 -63 -4 -6 0
-8 10 -4 12 4 14 2 10 -10 -4 -11 -3 -14 6 -9 12 8 151 -98 151 -114 0 -5 8
-11 18 -14 31 -10 307 -285 304 -302 -2 -9 1 -13 6 -10 14 8 54 -34 48 -51 -3
-8 -1 -11 5 -8 13 9 39 -13 50 -43 5 -14 12 -22 16 -19 11 12 42 -40 37 -64
-3 -18 -2 -20 4 -6 7 16 11 14 37 -18 17 -20 44 -52 62 -72 17 -20 29 -41 26
-47 -3 -5 -1 -6 5 -2 6 3 13 2 17 -4 3 -5 1 -10 -5 -10 -6 0 -8 -5 -5 -10 4
-6 10 -8 15 -5 12 7 41 -36 33 -48 -3 -6 -1 -7 5 -3 7 4 24 -11 41 -36 17 -24
39 -54 51 -67 14 -17 17 -28 10 -35 -15 -15 -12 -30 4 -17 10 9 17 7 27 -6 12
-15 12 -16 -2 -11 -13 5 -16 2 -12 -13 6 -21 23 -26 23 -6 0 7 7 4 15 -7 8
-11 15 -25 15 -30 0 -6 -5 -4 -10 4 -7 11 -10 12 -10 2 0 -8 9 -16 20 -19 20
-5 80 -111 80 -142 0 -13 2 -14 9 -2 7 11 13 6 27 -20 11 -19 21 -45 24 -59 8
-36 25 -21 25 22 0 20 -2 35 -6 32 -4 -2 -16 12 -28 31 -11 19 -24 35 -29 35
-4 0 -8 9 -9 20 -1 12 -13 34 -27 50 -13 17 -28 39 -31 50 -4 11 -17 32 -31
47 -13 14 -24 32 -24 39 0 7 -10 21 -22 31 -13 10 -32 34 -42 53 -23 41 -41
60 -55 60 -6 0 -11 9 -11 19 0 11 -7 26 -15 34 -8 8 -49 55 -91 103 -41 49
-91 106 -110 128 -19 21 -34 44 -34 52 0 8 -5 14 -11 14 -5 0 -7 5 -4 10 3 6
-1 10 -10 10 -9 0 -13 5 -10 10 3 6 2 10 -3 10 -6 0 -31 20 -56 45 -26 25 -51
45 -55 45 -9 0 -24 38 -22 53 1 5 -3 6 -9 2 -5 -3 -13 1 -16 9 -3 9 -10 16
-15 16 -5 0 -26 17 -47 37 -80 81 -224 203 -238 203 -8 0 -12 5 -9 10 7 11
-33 49 -51 50 -7 0 -14 7 -18 15 -3 8 -12 15 -21 15 -8 0 -34 18 -56 40 -23
22 -44 39 -46 36 -2 -2 -17 8 -33 23 -63 57 -78 70 -82 66 -2 -3 -32 18 -65
45 -34 28 -66 50 -72 50 -5 0 -22 10 -38 23 -15 13 -49 33 -76 45 -26 12 -56
31 -68 43 -11 11 -27 18 -34 15 -12 -4 -24 3 -72 44 -7 5 -18 10 -26 10 -8 0
-26 9 -40 20 -14 11 -32 20 -40 20 -8 0 -17 7 -21 15 -3 8 -13 15 -22 15 -9 0
-31 9 -49 20 -19 11 -37 20 -42 19 -4 -1 -17 -1 -28 0 -16 1 -17 3 -6 10 11 7
3 13 -30 22 -24 7 -51 18 -59 25 -8 6 -26 15 -40 19 -14 4 -42 16 -64 27 -37
19 -63 27 -98 32 -9 1 -23 8 -32 15 -8 7 -20 10 -26 6 -5 -3 -10 -1 -10 5 0 6
-5 8 -11 5 -5 -4 -19 1 -29 10 -11 10 -36 19 -56 21 -20 1 -40 8 -44 15 -5 6
-15 9 -23 6 -8 -3 -23 0 -33 7 -11 7 -30 13 -43 14 -13 0 -31 8 -40 16 -9 8
-30 14 -47 14 -17 -1 -37 3 -44 7 -7 4 -27 10 -43 12 -17 1 -34 8 -38 14 -3 6
-15 10 -25 8 -33 -4 -144 23 -137 34 4 6 -2 8 -15 5 -12 -3 -54 0 -94 8 -129
25 -439 63 -603 74 -155 11 -219 11 -449 0z m-4376 -2854 c0 -11 5 -28 10 -36
8 -13 10 -12 10 3 0 16 5 18 39 12 24 -4 42 -2 46 4 3 6 26 11 51 11 42 0 44
-1 44 -30 0 -16 -4 -30 -10 -30 -5 0 -10 -7 -10 -15 0 -10 11 -15 35 -15 38 0
60 25 49 57 -6 16 -5 15 9 -2 8 -11 11 -22 6 -26 -5 -3 -11 -23 -13 -45 -2
-21 -18 -69 -35 -106 -17 -36 -31 -71 -31 -76 0 -6 -13 -39 -29 -74 -84 -181
-224 -657 -281 -953 -80 -413 -91 -943 -29 -1370 31 -208 105 -528 181 -770
41 -134 147 -410 179 -468 5 -10 8 -28 5 -40 -3 -12 -3 -16 1 -8 6 15 93 -156
93 -183 0 -22 26 -66 35 -58 4 4 3 -3 -4 -15 -17 -33 -14 -53 10 -53 11 0 17
5 14 10 -4 6 -11 8 -16 5 -5 -4 -9 1 -9 9 0 26 18 18 36 -15 8 -17 11 -28 5
-25 -6 4 -11 2 -11 -3 0 -6 4 -11 9 -11 11 0 36 -69 33 -87 -2 -7 2 -13 8 -13
5 0 10 8 10 18 0 14 4 12 20 -8 12 -15 18 -34 15 -47 -3 -13 -1 -23 5 -23 5 0
11 -12 11 -27 1 -18 3 -22 6 -10 5 20 25 18 31 -4 3 -11 2 -11 -7 1 -9 12 -10
9 -9 -12 1 -16 6 -28 11 -28 6 0 7 -16 4 -35 -3 -19 -2 -35 4 -35 5 0 9 8 9
18 0 14 2 15 10 2 6 -10 6 -16 0 -18 -6 -2 -10 -21 -10 -43 0 -28 4 -39 15
-39 8 0 15 -4 15 -8 0 -5 9 -19 20 -32 22 -26 25 -36 10 -45 -16 -10 -12 -91
5 -105 19 -16 20 -54 1 -47 -10 4 -14 -12 -15 -73 -2 -71 0 -79 18 -85 17 -5
19 -10 10 -26 -10 -20 -4 -59 10 -59 5 0 6 11 3 25 -3 19 0 25 13 25 12 0 15
-5 10 -20 -4 -13 -2 -20 7 -20 10 0 10 -2 -1 -9 -7 -5 -10 -14 -7 -20 5 -7 2
-10 -6 -9 -22 5 -67 59 -61 74 3 9 0 12 -8 10 -13 -5 -84 82 -84 103 0 5 -4
13 -9 18 -6 5 -6 2 -1 -7 8 -13 6 -13 -7 -2 -10 8 -14 20 -11 29 4 11 2 14 -5
9 -7 -4 -15 0 -19 11 -4 10 -9 20 -13 23 -3 3 -22 27 -41 55 -18 27 -40 56
-47 64 -7 7 -11 20 -8 27 3 7 0 16 -6 20 -7 4 -8 3 -4 -4 4 -7 5 -12 3 -12 -9
0 -54 70 -163 257 -310 530 -528 1154 -613 1758 -54 379 -73 727 -52 970 45
528 91 783 206 1157 30 98 55 180 55 184 0 3 5 2 12 -2 6 -4 8 -3 5 3 -15 25
130 382 148 366 4 -5 5 0 2 9 -9 26 40 128 59 121 7 -3 14 -15 14 -27z m3338
-6371 c226 -72 568 -139 817 -159 22 -1 48 -6 58 -9 9 -4 24 -9 32 -12 9 -3
15 -17 15 -37 1 -18 7 -51 15 -73 11 -30 11 -41 2 -47 -8 -5 -5 -8 8 -9 17 -1
16 -2 -5 -9 -23 -7 -21 -8 20 -16 l45 -9 -55 -6 c-61 -7 -326 6 -426 21 -35 6
-93 14 -129 20 -202 31 -675 157 -675 180 0 5 4 11 9 14 5 4 31 39 56 79 58
88 74 107 92 107 7 0 62 -16 121 -35z"/>
<path d="M4085 9629 c-49 -17 -103 -32 -120 -33 -45 -4 -47 -5 -41 -15 6 -9
-50 -27 -68 -22 -5 1 -16 -5 -25 -13 -10 -9 -41 -20 -69 -26 -57 -10 -92 -26
-92 -39 0 -5 -12 -12 -27 -17 -16 -4 -30 -8 -33 -9 -3 -1 -21 -9 -40 -17 -39
-18 -69 -30 -87 -34 -7 -1 -24 -11 -38 -22 -14 -11 -34 -18 -44 -15 -10 2 -25
-2 -33 -11 -9 -8 -34 -23 -57 -32 -23 -9 -41 -20 -41 -26 0 -5 -5 -6 -10 -3
-6 4 -25 -4 -43 -18 -18 -13 -47 -28 -65 -31 -17 -4 -32 -12 -32 -17 0 -5 -35
-27 -77 -48 -43 -22 -73 -40 -68 -41 6 0 -21 -16 -59 -34 -38 -19 -71 -38 -75
-43 -8 -11 -100 -73 -109 -73 -4 0 -13 -9 -20 -20 -7 -12 -17 -18 -22 -15 -11
7 -140 -83 -140 -97 0 -4 -7 -8 -15 -8 -8 0 -19 -9 -25 -20 -6 -11 -31 -30
-56 -42 -25 -11 -49 -28 -52 -37 -3 -8 -18 -26 -33 -38 -70 -59 -89 -82 -89
-107 0 -14 4 -26 8 -26 8 0 51 -36 109 -91 17 -17 30 -20 62 -15 22 3 49 14
61 26 11 11 24 20 30 20 6 0 10 7 10 15 0 9 8 19 18 22 9 4 22 11 27 15 6 5
21 17 34 28 13 11 32 22 42 25 11 4 19 11 19 16 0 6 13 15 30 20 16 6 32 18
35 27 9 27 107 83 122 70 7 -6 14 -7 14 -2 1 5 2 15 3 23 0 8 10 19 21 25 11
6 22 13 25 17 3 3 23 16 45 29 22 13 44 30 48 37 5 9 17 11 30 8 15 -4 18 -3
9 3 -15 10 44 50 178 119 47 24 91 52 98 61 7 9 18 17 25 17 7 0 41 15 76 33
34 17 71 32 82 32 10 0 22 7 27 15 4 9 19 17 31 20 13 2 31 11 41 20 9 8 22
15 29 15 7 0 46 15 86 34 41 19 99 42 130 51 31 8 53 20 50 25 -4 6 -3 10 2
11 30 2 58 11 70 20 7 6 25 9 40 6 19 -4 32 1 44 15 10 11 65 34 129 53 61 19
115 37 121 40 15 10 10 25 -8 25 -13 0 -14 3 -5 8 9 6 2 21 -25 57 -77 100
-80 101 -218 54z m-447 -307 c50 -15 53 -15 92 7 32 18 43 20 61 11 11 -6 27
-9 35 -6 25 10 15 -3 -16 -19 -16 -8 -40 -15 -55 -15 -14 0 -25 -4 -25 -10 0
-14 -89 -52 -103 -44 -7 4 -9 4 -5 -1 5 -5 -54 -38 -130 -75 -244 -119 -487
-270 -761 -473 -79 -59 -147 -107 -152 -107 -15 0 -21 21 -9 34 8 11 8 15 0
18 -7 2 -12 25 -12 53 0 28 -5 57 -12 65 -22 26 -26 59 -7 65 9 2 27 15 41 27
33 30 362 248 374 248 3 0 25 14 49 30 25 17 49 30 53 30 5 0 20 9 34 20 14
11 31 20 38 20 7 0 20 7 28 15 9 8 24 15 35 15 10 0 19 3 19 8 0 7 61 34 108
47 12 4 20 11 17 16 -4 5 7 6 25 3 19 -4 30 -2 30 5 0 12 36 15 43 4 2 -5 2
-2 1 5 -3 11 10 17 31 12 6 -1 18 -3 28 -5 9 -2 20 -6 25 -8 4 -3 16 -1 27 3
19 8 19 8 -5 19 -23 10 -22 11 10 5 19 -3 59 -13 88 -22z"/>
<path d="M5250 9170 c-273 -28 -583 -80 -740 -125 -180 -52 -261 -77 -360
-115 -157 -59 -190 -74 -389 -173 -252 -126 -241 -120 -241 -129 0 -5 -5 -8
-10 -8 -6 0 -50 -23 -98 -52 -77 -47 -105 -64 -176 -111 -10 -6 -34 -24 -54
-39 -19 -16 -38 -28 -41 -28 -3 0 -23 -16 -43 -35 -20 -19 -39 -35 -42 -35 -7
0 -37 -25 -115 -95 -31 -27 -64 -56 -75 -65 -23 -18 -34 -30 -167 -168 -159
-166 -249 -280 -403 -512 -157 -238 -258 -441 -349 -705 -73 -213 -109 -335
-124 -420 -3 -16 -9 -34 -13 -40 -7 -9 -40 -170 -54 -265 -3 -19 -12 -78 -20
-130 -49 -316 -45 -781 7 -1070 9 -47 23 -128 32 -180 39 -222 114 -489 194
-686 72 -178 88 -215 100 -227 6 -6 11 -16 11 -22 0 -16 141 -289 151 -293 5
-2 9 -9 9 -16 0 -7 23 -51 51 -97 28 -46 58 -97 67 -112 10 -16 37 -56 62 -90
24 -34 58 -83 76 -108 17 -26 36 -53 43 -60 6 -8 41 -52 77 -99 104 -135 325
-366 430 -452 90 -72 330 -248 339 -248 3 0 27 -15 53 -33 66 -46 212 -127
228 -127 8 0 14 -4 14 -8 0 -5 35 -26 78 -46 42 -20 84 -41 92 -45 18 -11 127
-60 155 -71 11 -4 47 -16 80 -25 33 -10 80 -24 104 -31 25 -8 54 -14 65 -14
12 0 33 -6 48 -14 15 -8 60 -19 99 -26 40 -6 79 -16 86 -22 8 -6 60 -14 116
-17 56 -4 107 -10 113 -14 6 -3 64 -9 128 -12 97 -4 118 -2 122 10 5 11 24 15
80 15 59 0 74 3 74 15 0 19 76 21 83 3 3 -10 10 -8 25 6 16 14 48 22 117 29
52 6 95 13 95 16 0 4 69 7 152 8 142 2 154 3 170 23 15 19 30 21 190 25 95 3
181 8 191 11 9 3 17 1 17 -5 0 -6 5 -11 11 -11 6 0 8 9 4 20 -6 17 -2 20 28
20 22 0 37 -6 41 -16 4 -11 13 -13 28 -8 13 3 25 11 26 15 2 5 25 9 52 9 38 0
49 4 52 18 5 19 20 22 171 38 21 2 42 6 47 9 6 3 35 10 66 15 30 5 79 21 109
35 30 14 59 25 65 25 6 0 13 13 16 30 6 26 11 30 53 35 25 3 59 12 75 21 19
10 32 11 41 4 6 -5 15 -7 18 -3 12 11 7 23 -9 23 -9 0 -14 6 -12 13 3 7 26 13
55 15 41 2 52 7 56 22 5 20 47 29 47 10 0 -5 9 -10 21 -10 11 0 18 4 15 9 -3
5 5 12 19 15 14 4 25 12 25 19 0 19 43 57 63 57 9 0 17 4 17 9 0 5 13 12 29
16 16 3 42 17 57 30 15 13 42 26 60 30 24 4 31 10 27 20 -3 8 0 15 6 15 7 0
25 14 42 31 16 16 46 37 67 46 20 8 60 38 87 66 69 70 143 137 153 137 4 0 24
18 45 40 20 22 41 40 46 40 6 0 24 15 40 32 17 18 55 60 85 93 31 33 56 66 56
73 0 6 7 12 15 12 8 0 15 7 15 15 0 8 7 15 15 15 8 0 21 12 29 28 8 15 30 44
48 64 18 20 45 56 60 80 15 24 52 71 83 106 30 35 55 71 55 81 0 10 9 29 21
42 11 13 27 36 35 52 8 15 19 27 23 27 5 0 12 14 16 30 4 17 22 52 40 79 48
69 205 383 205 409 0 5 9 31 21 58 11 27 24 58 29 69 28 68 97 308 126 435 7
36 23 99 33 140 43 168 56 340 55 750 0 320 -3 401 -18 480 -9 52 -21 124 -27
160 -5 36 -16 94 -24 130 -52 229 -66 287 -74 305 -5 11 -18 55 -30 98 -74
268 -318 754 -524 1045 -32 45 -62 84 -67 87 -16 10 -12 28 4 22 8 -3 17 1 20
9 3 8 -1 14 -9 14 -8 0 -15 5 -15 10 0 6 -7 10 -15 10 -8 0 -15 -6 -15 -12 0
-7 -8 -1 -17 12 -9 14 -34 44 -54 68 -24 28 -36 49 -32 59 5 12 2 15 -9 10
-11 -4 -31 12 -64 50 -27 31 -48 60 -46 65 1 5 -1 7 -6 4 -10 -6 -105 89 -108
109 -3 19 5 19 28 -2 10 -9 18 -11 18 -5 0 18 -39 35 -54 23 -8 -7 -23 0 -51
26 -22 20 -39 40 -37 45 1 4 -4 7 -10 6 -7 -2 -12 4 -10 12 2 8 0 12 -3 8 -4
-4 -26 8 -48 27 -22 19 -44 35 -49 35 -4 0 -8 5 -8 10 0 6 7 10 15 10 8 0 15
5 15 10 0 6 -7 10 -15 10 -8 0 -15 -4 -15 -10 0 -16 -14 -12 -38 10 -12 11
-19 26 -16 34 3 8 1 17 -5 21 -7 3 -8 0 -5 -9 7 -19 -9 -21 -28 -3 -32 29 -98
77 -107 77 -5 0 -11 4 -13 8 -8 22 -286 186 -458 272 -58 28 -104 56 -102 62
1 5 -2 7 -7 4 -10 -7 -57 11 -154 60 -37 19 -73 34 -80 34 -7 0 -25 7 -41 15
-28 15 -284 102 -361 123 -269 74 -532 113 -790 117 -104 2 -228 0 -275 -5z
m555 -321 c206 -23 371 -63 670 -164 241 -81 378 -140 562 -246 59 -34 124
-70 143 -81 138 -79 369 -265 520 -419 92 -95 102 -107 89 -115 -8 -5 -9 -3
-4 6 6 10 4 12 -8 7 -10 -4 -21 3 -31 17 -20 32 -189 195 -251 243 -163 128
-412 286 -585 373 -254 128 -699 272 -970 314 -404 64 -807 41 -1270 -70 -349
-84 -721 -230 -985 -388 -399 -238 -601 -410 -857 -731 -170 -214 -327 -447
-418 -623 -35 -68 -45 -81 -53 -67 -11 21 -4 62 23 117 11 23 20 45 20 48 0
32 226 394 293 469 12 14 51 63 85 108 34 46 89 111 122 145 33 34 60 63 60
65 0 8 61 63 70 63 5 0 10 7 10 15 0 8 3 15 8 15 4 0 30 22 57 48 28 26 70 63
94 82 24 19 49 41 56 48 8 6 17 12 20 12 4 0 24 15 46 33 21 19 56 42 76 53
21 10 46 27 57 36 11 10 32 23 47 30 15 7 25 16 23 20 -3 4 0 8 6 8 6 0 45 22
88 48 115 71 418 218 522 252 14 5 50 18 80 30 184 71 571 163 805 190 257 29
563 33 780 9z m-748 -145 c8 -21 -8 -30 -76 -42 -197 -38 -285 -57 -356 -77
-44 -12 -147 -42 -230 -65 -185 -52 -284 -90 -445 -168 -158 -77 -253 -129
-357 -195 -45 -29 -132 -84 -195 -124 -139 -88 -225 -162 -375 -323 -157 -170
-192 -216 -422 -565 -98 -149 -260 -482 -323 -665 -67 -197 -132 -491 -159
-730 -15 -137 -16 -468 0 -595 54 -444 112 -681 257 -1043 100 -249 206 -443
377 -687 20 -27 39 -61 43 -75 6 -24 6 -24 -17 -9 -20 13 -130 136 -157 174
-205 293 -376 662 -457 985 -190 760 -173 1331 60 2025 67 201 78 227 114 267
16 18 61 92 101 163 40 72 85 148 100 170 15 22 38 58 52 80 14 22 33 53 44
69 10 16 24 36 29 45 66 106 136 202 218 301 103 124 374 382 466 443 31 20
61 42 68 47 7 6 16 10 20 10 4 0 33 18 64 40 32 22 60 40 62 40 3 0 32 17 64
39 32 21 81 50 108 64 28 14 68 37 90 53 62 42 96 60 212 109 59 25 121 53
138 62 16 9 46 16 67 14 21 -1 38 2 38 6 0 9 39 27 85 39 33 8 33 8 55 16 95
36 145 50 179 51 23 1 41 5 41 8 0 7 236 34 263 30 10 -1 24 2 30 8 7 5 33 11
57 14 25 2 49 4 53 5 4 1 10 -5 14 -14z m-2446 -1702 c-81 -142 -220 -438
-256 -547 -45 -134 -89 -350 -147 -725 -15 -95 -4 -595 15 -695 8 -44 23 -129
32 -190 30 -189 64 -335 116 -490 28 -82 53 -157 55 -165 3 -8 -2 -4 -9 10
-26 45 -105 291 -147 459 -113 454 -129 934 -45 1331 80 375 132 550 216 728
58 123 210 385 217 377 2 -2 -19 -44 -47 -93z m1927 -399 c22 -5 32 -43 11
-43 -6 0 2 -15 19 -34 32 -37 54 -117 33 -124 -6 -2 -9 -7 -6 -12 2 -4 -4 -15
-15 -25 -11 -10 -20 -24 -20 -32 0 -7 -4 -13 -9 -13 -12 0 -71 -58 -71 -70 0
-4 -7 -10 -15 -14 -20 -7 -98 -131 -155 -244 -25 -51 -48 -90 -51 -87 -3 3
-16 -16 -29 -43 -25 -51 -73 -102 -96 -102 -8 0 -25 -6 -37 -14 -12 -8 -57
-17 -99 -20 -92 -7 -89 -13 -58 129 25 111 37 148 87 250 40 82 98 171 147
224 126 135 202 211 213 211 7 0 13 5 13 10 0 17 53 60 68 55 6 -2 12 0 12 6
0 7 7 8 18 4 9 -4 27 -10 40 -12z m517 -153 c-3 -5 -10 -10 -14 -10 -11 0
-177 -100 -228 -136 -123 -90 -216 -194 -294 -329 -60 -102 -92 -198 -138
-410 l-9 -40 0 50 c-1 69 11 134 43 240 44 148 129 287 253 412 92 94 198 162
332 214 54 21 63 22 55 9z m-88 -155 c0 -9 -23 -32 -51 -53 -28 -20 -56 -41
-62 -47 -6 -5 -27 -23 -48 -40 -35 -27 -186 -205 -186 -217 0 -3 -18 -36 -39
-73 -22 -36 -49 -94 -62 -127 -17 -45 -24 -56 -31 -44 -12 21 27 175 53 211 4
6 19 33 34 60 36 64 123 172 171 210 21 17 42 35 49 40 34 31 82 59 100 57 11
0 31 8 45 18 14 11 25 20 26 20 0 0 1 -7 1 -15z"/>
<path d="M1195 5989 c-8 -23 -25 -141 -26 -184 l-2 -40 -7 40 -7 40 -3 -40
c-1 -22 -2 -42 -2 -45 0 -3 -4 -41 -9 -85 -19 -146 -11 -522 16 -790 12 -122
46 -334 66 -408 6 -21 12 -52 14 -70 2 -18 11 -52 20 -76 8 -24 15 -53 15 -65
0 -12 4 -26 10 -32 5 -5 13 -32 16 -59 4 -28 12 -57 19 -65 22 -26 27 -59 15
-96 -7 -19 -9 -38 -6 -41 3 -4 9 9 12 27 l7 33 13 -24 c10 -21 42 -129 48
-165 1 -6 10 -23 19 -38 10 -15 15 -31 12 -36 -3 -6 -1 -10 5 -10 6 0 8 -5 5
-10 -9 -14 4 -52 15 -45 5 3 12 -6 16 -20 6 -25 -10 -72 -30 -86 -5 -4 -6 -13
-4 -20 3 -8 12 -1 23 19 11 18 23 32 27 32 7 0 28 -64 28 -86 0 -7 7 -14 15
-18 8 -3 15 -12 15 -20 0 -9 9 -30 20 -48 11 -18 20 -43 20 -54 0 -12 7 -24
15 -28 8 -3 15 -14 15 -23 0 -10 7 -28 15 -41 33 -47 75 -135 75 -158 0 -14 7
-27 15 -30 9 -4 25 -27 36 -52 12 -25 27 -52 35 -59 8 -8 14 -18 14 -23 0 -14
59 -33 77 -25 10 5 26 10 36 11 24 5 120 72 131 92 11 19 8 84 -4 92 -4 3 -13
22 -19 43 -7 20 -16 37 -21 37 -12 0 -37 66 -39 108 -1 6 -7 12 -15 12 -18 0
-59 78 -52 97 4 8 1 11 -5 7 -8 -4 -9 1 -4 16 5 16 4 20 -5 15 -7 -4 -13 1
-17 14 -3 12 -9 21 -14 21 -5 0 -9 11 -9 25 0 14 -4 25 -9 25 -5 0 -13 10 -16
23 -7 21 -22 58 -48 117 -6 14 -16 31 -21 38 -5 8 -11 21 -12 30 -3 20 -32
108 -45 137 -19 41 -61 163 -80 230 -11 39 -25 86 -31 105 -5 19 -12 55 -15
80 -3 25 -8 47 -12 50 -4 3 -12 30 -18 60 -7 30 -21 98 -33 150 -42 184 -81
658 -98 1174 -8 240 7 214 -129 223 -65 4 -84 2 -88 -8z m80 -469 c44 0 88 0
99 0 10 1 20 -1 22 -3 3 -2 11 -105 19 -228 36 -568 89 -854 235 -1284 90
-265 208 -532 345 -780 44 -79 53 -129 30 -155 -22 -24 -137 -90 -157 -90 -30
0 -70 61 -161 245 -138 276 -179 371 -267 605 -190 510 -281 982 -284 1475 -1
116 2 219 7 229 7 17 9 18 20 3 9 -12 31 -16 92 -17z"/>
<path d="M10720 2720 l0 -160 40 0 40 0 0 160 0 160 -40 0 -40 0 0 -160z"/>
<path d="M7623 1866 c-13 -6 -23 -14 -23 -18 0 -5 -5 -8 -12 -8 -18 0 -148
-62 -148 -70 0 -4 -12 -11 -27 -15 -16 -4 -53 -21 -83 -39 -114 -67 -307 -157
-573 -265 l-189 -77 -1 -59 c-2 -50 1 -62 24 -87 15 -15 32 -28 38 -28 6 0 11
-4 11 -10 0 -13 54 -13 94 -1 17 5 47 14 66 20 133 38 320 118 455 194 33 19
87 49 120 68 33 18 62 36 63 41 2 4 9 8 15 8 21 0 217 121 247 152 29 30 42
88 20 88 -5 0 -12 17 -16 37 -8 41 -29 70 -39 53 -3 -5 -16 -10 -28 -10 -22 0
-22 1 3 20 27 21 19 24 -17 6z"/>
</g>
</svg>
